<?xml version="1.0" encoding="UTF-8" standalone="no"?>
<svg viewBox="0 0 38.000004 38.00079" xmlns="http://www.w3.org/2000/svg">
<defs>
<radialGradient cx="24.83713" cy="36.42113" gradientTransform="matrix(1,0,0,.536723,0,16.87306)" gradientUnits="userSpaceOnUse" id="radialGradient4441" r="15.64474">
<stop offset="0"/>
<stop offset="1" stop-opacity="0"/>
</radialGradient>
<radialGradient cx="35.29267" cy="20.49449" gradientTransform="matrix(0,.843022,-1.020168,0,45.890239,1.381542)" gradientUnits="userSpaceOnUse" id="radialGradient4443" r="16.9562">
<stop offset="0" stop-color="#ef2929"/>
<stop offset="1" stop-color="#c00"/>
</radialGradient>
<radialGradient cx="15.98722" cy="1.53503" gradientTransform="matrix(0,2.046729,1.55761,0,2.381085,-22.965068)" gradientUnits="userSpaceOnUse" id="radialGradient4445" r="17.17142">
<stop offset="0" stop-color="#fff"/>
<stop offset="1" stop-color="#fff" stop-opacity="0"/>
</radialGradient>
</defs>
<g transform="translate(-4.46811,-4.96768)">
<path d="m40.48186,36.42113a15.64474,8.39689 0 1,1 -31.28947,0 15.64474,8.39689 0 1,1 31.28947,0z" fill="url(#radialGradient4441)" fill-rule="evenodd" opacity=".20455" transform="matrix(1.214466,0,0,.595458,-6.695731,16.281223)"/>
<path d="m31.97754,5.46768-18.00503.00391v12.99163l-7.99537.00781 17.14472,19.99744 16.84625-19.99807-7.99588-.00379 .0053-12.99893z" fill="url(#radialGradient4443)" fill-rule="evenodd" stroke="#a40000" stroke-linecap="round" stroke-linejoin="round" stroke-miterlimit="10"/>
<path d="m7.06679,18.97422 7.40639-.01172-.00268-12.99284 15.37856.00915c-.76992,18.34099-10.72265,10.99307-15.38166,21.64688l-7.40061-8.65148z" fill="url(#radialGradient4445)" fill-rule="evenodd" opacity=".50802"/>
<path d="m30.97597,6.47159-16.00141-.00391v12.99295l-6.81681.01563 14.95428,17.45259 14.70653-17.45694-6.8399-.00525-.00269-12.99507z" fill="none" opacity=".48128" stroke="#fff" stroke-miterlimit="10"/>
</g>
</svg>
